<svg width="1103" height="159" viewBox="0 0 1103 159" fill="none" xmlns="http://www.w3.org/2000/svg">
<path d="M29.5655 117.247C46.3588 123.081 58.934 127.023 67.2912 129.073C75.7272 131.202 82.9412 132.266 88.9332 132.266C95.004 132.266 101.666 130.887 108.919 128.127L109.511 129.073C99.8921 135.696 90.1946 139.007 80.4183 139.007C70.4054 139.007 59.0128 135.893 46.2405 129.665C36.3853 124.776 30.2751 121.82 27.9099 120.795C19.4738 117.01 12.5358 115.079 7.09573 115V113.817H8.63314C10.683 113.817 12.4175 113.108 13.8367 111.689C15.3347 110.27 16.1231 108.496 16.2019 106.367V40.8496C16.1231 38.7997 15.3347 37.0652 13.8367 35.6461C12.4175 34.1481 10.683 33.3991 8.63314 33.3991H7.09573V32.2165H32.9951V33.3991H31.4577C29.4079 33.3991 27.6339 34.1481 26.1359 35.6461C24.638 37.0652 23.889 38.7997 23.889 40.8496V109.087C23.889 110.506 23.9678 111.61 24.1255 112.398C24.2832 113.108 24.7956 113.936 25.6629 114.882C26.5301 115.828 27.831 116.616 29.5655 117.247ZM134.389 33.3991H132.497C130.841 33.3991 129.383 33.951 128.121 35.0548C126.939 36.0797 126.308 37.3806 126.229 38.9574V85.7892C126.229 95.0137 123.312 102.464 117.478 108.141C111.643 113.817 103.878 116.656 94.1801 116.656C84.4826 116.656 76.5985 113.857 70.5277 108.259C64.5357 102.582 61.5398 95.132 61.5398 85.9075V39.3122C61.5398 36.947 60.5148 35.2124 58.4649 34.1087C57.5188 33.6356 56.4545 33.3991 55.2719 33.3991H53.3797V32.2165H77.3869V33.3991H75.4947C73.7602 33.3991 72.3016 33.951 71.119 35.0548C69.9364 36.0797 69.3056 37.42 69.2268 39.0757V84.2518C69.2268 92.8456 71.5132 99.7836 76.086 105.066C80.7377 110.348 86.9267 112.99 94.6532 112.99C102.38 112.99 108.648 110.506 113.457 105.539C118.266 100.493 120.671 93.9099 120.671 85.7892V39.0757C120.592 37.42 119.961 36.0797 118.779 35.0548C117.596 33.951 116.137 33.3991 114.403 33.3991H112.511V32.2165H134.389V33.3991ZM220.839 113.817H221.785V115H195.176V113.817H196.24C197.896 113.817 199.118 113.305 199.907 112.28C200.774 111.176 201.207 110.151 201.207 109.205C201.207 108.259 201.05 107.313 200.734 106.367L193.166 86.2623H161.235L153.311 106.485C152.996 107.431 152.838 108.377 152.838 109.323C152.838 110.191 153.232 111.176 154.021 112.28C154.888 113.305 156.15 113.817 157.805 113.817H158.87V115H135.099V113.817H136.163C138.134 113.817 140.066 113.187 141.958 111.925C143.85 110.664 145.388 108.811 146.57 106.367L173.298 42.7418C176.215 36.3557 177.673 32.2953 177.673 30.5608H178.738L210.432 106.367C211.536 108.811 213.034 110.664 214.926 111.925C216.818 113.187 218.789 113.817 220.839 113.817ZM162.654 82.7144H191.746L177.555 44.7523L162.654 82.7144ZM312.364 33.3991C310.393 33.3991 308.698 34.1087 307.278 35.5278C305.859 36.8681 305.11 38.5238 305.031 40.4948V101.518C305.031 106.091 305.307 110.427 305.859 114.527L306.096 116.656H305.031L240.579 47.8271V106.722C240.579 108.693 241.288 110.388 242.707 111.807C244.126 113.147 245.821 113.817 247.793 113.817H250.04V115H225.677V113.817H227.924C229.896 113.817 231.591 113.147 233.01 111.807C234.429 110.388 235.138 108.653 235.138 106.603V45.2253C235.138 40.416 234.863 36.1191 234.311 32.3347L234.074 30.4425H235.257L299.71 99.2711V40.6131C299.631 38.5632 298.882 36.8681 297.463 35.5278C296.043 34.1087 294.348 33.3991 292.377 33.3991H290.13V32.2165H314.492V33.3991H312.364ZM402.736 113.817H403.682V115H377.073V113.817H378.138C379.793 113.817 381.015 113.305 381.804 112.28C382.671 111.176 383.105 110.151 383.105 109.205C383.105 108.259 382.947 107.313 382.632 106.367L375.063 86.2623H343.132L335.209 106.485C334.893 107.431 334.736 108.377 334.736 109.323C334.736 110.191 335.13 111.176 335.918 112.28C336.785 113.305 338.047 113.817 339.703 113.817H340.767V115H316.996V113.817H318.061C320.032 113.817 321.963 113.187 323.855 111.925C325.748 110.664 327.285 108.811 328.468 106.367L355.195 42.7418C358.112 36.3557 359.571 32.2953 359.571 30.5608H360.635L392.329 106.367C393.433 108.811 394.931 110.664 396.823 111.925C398.715 113.187 400.686 113.817 402.736 113.817ZM344.551 82.7144H373.644L359.452 44.7523L344.551 82.7144Z" fill="#222420"/>
<path d="M545.008 108.553C540.354 112.572 535.198 114.582 529.539 114.582C525.52 114.582 521.157 113.498 516.45 111.329C513.594 109.954 510.95 108.315 508.517 106.411C506.085 104.56 503.097 102.18 499.553 99.2716C494.741 102.445 489.32 104.031 483.291 104.031C480.277 104.031 477.315 103.608 474.407 102.762C470.176 101.599 466.633 99.5361 463.777 96.5745C460.815 93.5072 459.335 89.7789 459.335 85.3895C459.335 82.0049 460.128 79.0698 461.715 76.5842C463.354 74.0457 465.602 72.0361 468.457 70.5554C466.183 67.065 465.046 63.4424 465.046 59.6876C465.046 55.8799 466.368 52.7068 469.013 50.1684C471.657 47.6299 475.359 46.3607 480.118 46.3607C486.147 46.3607 490.827 48.2381 494.159 51.9929L493.049 60.9568H492.255C492.097 57.202 490.96 54.2405 488.844 52.0722C486.729 49.8511 484.058 48.7405 480.832 48.7405C477.606 48.7405 475.068 49.7718 473.217 51.8343C471.366 53.8439 470.44 56.3559 470.44 59.3703C470.44 62.7549 471.498 65.8751 473.614 68.7308C475.782 71.5866 479.325 75.1563 484.243 79.44C489.214 83.7236 495.111 88.7476 501.933 94.512C504.789 91.9207 507.142 88.8534 508.993 85.3101C511.532 80.6034 512.801 75.4736 512.801 69.9207C512.801 67.2765 512.484 64.6587 511.849 62.0674C510.897 58.1011 508.835 54.2405 505.662 50.4857C502.488 46.7309 498.363 43.5314 493.287 40.8872L493.683 40.4112C498.125 42.2093 501.907 44.5362 505.027 47.392C511.69 53.4737 515.022 61.1684 515.022 70.476C515.022 76.2933 513.462 82.0049 510.342 87.6106C508.544 90.7837 506.349 93.5866 503.758 96.0192L508.835 100.144C514.229 104.481 519.623 107.575 525.017 109.425C527.503 110.272 530.411 110.695 533.743 110.695C537.075 110.695 540.698 109.743 544.611 107.839L545.008 108.553ZM471.948 97.2885C475.702 100.144 479.96 101.572 484.719 101.572C489.32 101.572 493.657 100.303 497.729 97.7644C490.378 91.6298 484.428 86.5794 479.88 82.613C475.332 78.6467 471.974 75.2621 469.806 72.4592C466.633 75.4207 465.046 79.44 465.046 84.5169C465.046 89.5938 467.347 93.851 471.948 97.2885Z" fill="#969F90"/>
<path d="M700.606 134.158C701.079 134.158 701.552 134.158 702.025 134.158V135.341C699.818 135.656 697.334 135.814 694.575 135.814C691.894 135.814 688.543 135.223 684.522 134.04C680.58 132.858 676.993 130.65 673.76 127.418C667.138 120.795 663.117 112.201 661.698 101.636L654.484 49.0097L629.885 104.593C627.678 109.402 626.337 113.423 625.864 116.656H624.682L594.052 50.0741L588.848 108.85C588.691 110.191 589.085 111.373 590.031 112.398C591.056 113.423 592.16 113.936 593.342 113.936H595.234V115H572.292V113.817H574.184C576.312 113.817 578.165 113.187 579.742 111.925C581.398 110.585 582.423 108.85 582.817 106.722L590.267 42.1505C583.329 28.5109 575.012 21.6911 565.314 21.6911C564.447 21.6911 563.54 21.7306 562.594 21.8094V20.6268C564.723 20.0749 566.457 19.7989 567.798 19.7989C569.138 19.7989 570.596 19.8778 572.173 20.0355C573.75 20.1143 575.603 20.4691 577.732 21.0998C579.86 21.7306 581.871 22.6767 583.763 23.9381C585.655 25.1207 587.311 26.3822 588.73 27.7225C590.149 28.984 591.489 30.4031 592.751 31.9799C594.88 34.8182 596.575 37.5383 597.836 40.14L626.337 101.873L658.15 30.5608H659.214L670.213 100.572C671.868 111.61 675.416 119.967 680.856 125.644C686.375 131.32 692.958 134.158 700.606 134.158ZM765.256 113.817H766.202V115H739.593V113.817H740.657C742.313 113.817 743.535 113.305 744.323 112.28C745.191 111.176 745.624 110.151 745.624 109.205C745.624 108.259 745.466 107.313 745.151 106.367L737.582 86.2623H705.652L697.728 106.485C697.413 107.431 697.255 108.377 697.255 109.323C697.255 110.191 697.649 111.176 698.438 112.28C699.305 113.305 700.566 113.817 702.222 113.817H703.286V115H679.516V113.817H680.58C682.551 113.817 684.483 113.187 686.375 111.925C688.267 110.664 689.804 108.811 690.987 106.367L717.714 42.7418C720.631 36.3557 722.09 32.2953 722.09 30.5608H723.154L754.849 106.367C755.952 108.811 757.45 110.664 759.343 111.925C761.235 113.187 763.206 113.817 765.256 113.817ZM707.071 82.7144H736.163L721.972 44.7523L707.071 82.7144ZM826.114 42.7418C826.114 40.8496 825.443 39.2334 824.103 37.8931C822.763 36.4739 821.186 35.7249 819.373 35.6461H796.903V106.485C796.982 108.535 797.731 110.27 799.15 111.689C800.648 113.108 802.422 113.817 804.472 113.817H806.009V115H780.11V113.817H781.647C783.697 113.817 785.431 113.108 786.851 111.689C788.348 110.27 789.137 108.574 789.216 106.603V35.6461H766.746C764.854 35.7249 763.237 36.4739 761.897 37.8931C760.636 39.2334 760.005 40.8496 760.005 42.7418V44.7523L758.822 44.8705V29.9695C760.005 30.4425 762.055 30.9156 764.972 31.3886C767.889 31.8617 770.57 32.0982 773.014 32.0982H812.986C816.85 32.0982 820.043 31.8223 822.566 31.2704C825.167 30.6396 826.744 30.206 827.296 29.9695V44.8705L826.114 44.7523V42.7418ZM894.252 113.817C896.302 113.817 898.036 113.108 899.456 111.689C900.953 110.191 901.742 108.456 901.821 106.485V75.8552H853.452V106.485C853.452 108.535 854.201 110.27 855.699 111.689C857.196 113.108 858.97 113.817 861.02 113.817H862.558V115H836.658V113.817H838.196C840.246 113.817 841.98 113.108 843.399 111.689C844.897 110.27 845.686 108.535 845.764 106.485V40.7314C845.686 38.6815 844.897 36.947 843.399 35.5278C841.98 34.1087 840.246 33.3991 838.196 33.3991H836.658V32.2165H862.558V33.3991H861.02C858.97 33.3991 857.196 34.1087 855.699 35.5278C854.279 36.947 853.53 38.6815 853.452 40.7314V72.3074H901.821V40.7314C901.742 37.8931 900.48 35.7643 898.036 34.3452C896.854 33.7145 895.592 33.3991 894.252 33.3991H892.715V32.2165H918.614V33.3991H917.077C915.027 33.3991 913.253 34.1481 911.755 35.6461C910.336 37.0652 909.587 38.7997 909.508 40.8496V106.485C909.587 108.535 910.336 110.27 911.755 111.689C913.253 113.108 915.027 113.817 917.077 113.817H918.614V115H892.715V113.817H894.252ZM894.555 113.817C896.605 113.817 898.339 113.108 899.759 111.689C901.257 110.191 902.045 108.417 902.124 106.367V40.14C902.124 38.2478 901.375 36.671 899.877 35.4096C898.379 34.0692 896.605 33.3991 894.555 33.3991H893.136L893.018 32.2165H927.668C930.113 32.2165 932.754 31.9799 935.592 31.5069C938.509 31.0339 940.559 30.5608 941.742 30.0878V44.9888H940.559V42.8601C940.559 40.9679 939.889 39.3516 938.549 38.0113C937.287 36.671 935.75 35.9614 933.936 35.8826H909.811V72.4256H929.797C931.374 72.3468 932.714 71.7555 933.818 70.6517C934.922 69.5479 935.474 68.1682 935.474 66.5125V64.8568H936.656V83.5423H935.474V81.7683C935.474 80.1915 934.922 78.8512 933.818 77.7474C932.793 76.6436 931.492 76.0523 929.915 75.9735H909.811V111.334H926.722C932.557 111.334 937.011 110.033 940.086 107.431C943.161 104.829 945.723 100.966 947.773 95.8415H948.956L942.096 115H893.018V113.817H894.555ZM1039.94 33.3991H1038.05C1036.4 33.3991 1034.94 33.951 1033.68 35.0548C1032.49 36.0797 1031.86 37.3806 1031.78 38.9574V85.7892C1031.78 95.0137 1028.87 102.464 1023.03 108.141C1017.2 113.817 1009.43 116.656 999.735 116.656C990.038 116.656 982.154 113.857 976.083 108.259C970.091 102.582 967.095 95.132 967.095 85.9075V39.3122C967.095 36.947 966.07 35.2124 964.02 34.1087C963.074 33.6356 962.01 33.3991 960.827 33.3991H958.935V32.2165H982.942V33.3991H981.05C979.315 33.3991 977.857 33.951 976.674 35.0548C975.492 36.0797 974.861 37.42 974.782 39.0757V84.2518C974.782 92.8456 977.068 99.7836 981.641 105.066C986.293 110.348 992.482 112.99 1000.21 112.99C1007.93 112.99 1014.2 110.506 1019.01 105.539C1023.82 100.493 1026.23 93.9099 1026.23 85.7892V39.0757C1026.15 37.42 1025.52 36.0797 1024.33 35.0548C1023.15 33.951 1021.69 33.3991 1019.96 33.3991H1018.07V32.2165H1039.94V33.3991ZM1053.09 110.151C1052.85 109.047 1052.74 106.919 1052.74 103.765C1052.74 100.611 1053.33 97.2607 1054.51 93.7128H1055.57C1055.49 94.5801 1055.46 95.4473 1055.46 96.3146C1055.46 101.124 1056.91 105.145 1059.83 108.377C1062.75 111.531 1066.61 113.108 1071.42 113.108C1076.39 113.108 1080.45 111.61 1083.6 108.614C1086.83 105.618 1088.45 101.873 1088.45 97.3789C1088.45 92.8061 1086.91 89.1006 1083.84 86.2623L1061.13 65.2116C1056.87 61.2695 1054.75 56.4996 1054.75 50.9019C1054.75 45.3042 1056.6 40.5342 1060.3 36.5922C1064.09 32.5713 1069.17 30.5608 1075.56 30.5608C1078.56 30.5608 1081.95 30.955 1085.73 31.7434H1090.34V46.2897H1089.28C1089.28 42.5841 1087.98 39.6276 1085.38 37.42C1082.85 35.2124 1079.58 34.1087 1075.56 34.1087C1071.54 34.1087 1068.15 35.449 1065.39 38.1296C1062.71 40.8102 1061.37 44.161 1061.37 48.1819C1061.37 52.2028 1062.95 55.6718 1066.1 58.5889L1089.4 80.1127C1093.34 83.7394 1095.31 88.7064 1095.31 95.0137C1095.31 101.321 1093.3 106.525 1089.28 110.624C1085.26 114.645 1079.9 116.656 1073.19 116.656C1069.73 116.656 1066.02 116.104 1062.08 115C1058.21 113.975 1055.22 112.359 1053.09 110.151Z" fill="#222420"/>
</svg>
