<svg width="20" height="25" viewBox="0 0 20 25" fill="none" xmlns="http://www.w3.org/2000/svg">
<path d="M4.5 10.3333H3.66667V17C3.66667 17.442 3.84226 17.866 4.15482 18.1785C4.46738 18.4911 4.89131 18.6667 5.33333 18.6667H9.5V10.3333H4.5ZM15.3333 10.3333H11.1667V18.6667H15.3333C15.7754 18.6667 16.1993 18.4911 16.5118 18.1785C16.8244 17.866 17 17.442 17 17V10.3333H15.3333ZM15.9925 6.16667C16.1137 5.76126 16.1724 5.33976 16.1667 4.91667C16.1667 3.30833 14.8583 2 13.25 2C11.8983 2 10.9958 3.235 10.4133 4.57083C9.83917 3.30833 8.89083 2 7.41667 2C5.80833 2 4.5 3.30833 4.5 4.91667C4.5 5.41333 4.56583 5.82417 4.67417 6.16667H2V9.5H9.5V7.83333H11.1667V9.5H18.6667V6.16667H15.9925ZM6.16667 4.91667C6.16667 4.2275 6.7275 3.66667 7.41667 3.66667C8.15667 3.66667 8.845 4.9375 9.24833 6.16667H7C6.68833 6.16667 6.16667 6.16667 6.16667 4.91667ZM13.25 3.66667C13.9392 3.66667 14.5 4.2275 14.5 4.91667C14.5 6.16667 13.9783 6.16667 13.6667 6.16667H11.6025C12.0275 4.85333 12.645 3.66667 13.25 3.66667Z" fill="#969F90"/>
</svg>
